<svg xmlns="http://www.w3.org/2000/svg" width="200" height="200" viewBox="0 0 56 56" fill="none">
  <g clip-path="url(#clip0_2513_41)">
    <path d="M32.4774 12.0272C34.488 13.7179 36.4963 15.5613 38.4668 17.538C39.9135 18.9893 41.2883 20.4607 42.5836 21.9382C40.6401 22.3388 39.0896 23.8153 38.5823 25.7175C37.3312 24.2835 35.9922 22.8461 34.5716 21.421C32.3851 19.2276 30.1687 17.2275 27.9798 15.4436C25.7969 17.2348 23.5872 19.2423 21.408 21.443C19.2556 23.6165 17.2921 25.818 15.539 27.992C17.2993 30.1602 19.2702 32.3551 21.4298 34.5215C23.6163 36.7149 25.8327 38.715 28.0216 40.4989C30.2045 38.7077 32.4142 36.7002 34.5934 34.4995C36.1707 32.9067 37.6465 31.2989 39.0125 29.6979C39.0357 29.7626 39.059 29.8268 39.0824 29.8903C39.4528 30.8982 39.9391 32.0176 40.4144 33.048C40.5859 33.4199 41.0059 34.2576 41.4901 35.2109C40.5328 36.2705 39.5357 37.3251 38.5016 38.3694C36.5377 40.3527 34.5356 42.2028 32.5306 43.9002C31.0281 45.1723 29.524 46.3586 28.0332 47.4511C26.5388 46.3637 25.0307 45.1823 23.524 43.9153C21.5134 42.2245 19.5051 40.3812 17.5346 38.4044C15.607 36.4707 13.8071 34.5013 12.1528 32.5293C10.8843 31.0172 9.70145 29.5036 8.6123 28.0036C9.69645 26.4999 10.8742 24.9824 12.1376 23.4661C13.7853 21.4886 15.5787 19.5131 17.4998 17.573C19.4637 15.5897 21.4658 13.7397 23.4708 12.0422C24.9733 10.7701 26.4774 9.58376 27.9682 8.49121C29.4627 9.57876 30.9707 10.7601 32.4774 12.0272Z" fill="#9DEA21"/>
    <path d="M18.5927 2.82286C21.1599 4.0312 23.8892 5.63318 26.6817 7.57498C25.2928 8.60653 23.8956 9.71578 22.5012 10.8963C22.3942 10.9869 22.2872 11.0779 22.1802 11.1694C20.1074 9.80633 18.1122 8.67553 16.2504 7.79913C13.5227 6.51518 11.221 5.84393 9.46365 5.70388C7.6931 5.56278 6.85335 5.97518 6.4627 6.36463C6.07205 6.75403 5.657 7.59248 5.79255 9.36343C5.92705 11.1212 6.5911 13.425 7.86645 16.1568C8.7471 18.0431 9.8877 20.0666 11.2655 22.1697C11.1715 22.2813 11.078 22.3931 10.9849 22.5048C9.81545 23.9083 8.7169 25.3143 7.6955 26.7116C5.7237 23.8697 4.10083 21.0924 2.88281 18.4835C1.45082 15.4162 0.511986 12.4409 0.308577 9.78313C0.106177 7.13853 0.618091 4.42491 2.57976 2.46941C4.54142 0.51391 7.25665 0.0105375 9.9006 0.22126C12.5578 0.433032 15.5301 1.38123 18.5927 2.82286Z" fill="#778BA5"/>
    <path d="M7.69952 29.2969C5.73722 32.1454 4.12358 34.928 2.91428 37.541C1.49253 40.613 0.563631 43.5914 0.369098 46.2499C0.175522 48.8952 0.696491 51.607 2.66467 53.556C4.63285 55.505 7.34972 55.999 9.99297 55.7795C12.6494 55.559 15.6185 54.601 18.6764 53.149C21.2395 51.932 23.9634 50.321 26.7494 48.37C25.3571 47.3431 23.9562 46.2385 22.5579 45.0627C22.4506 44.9724 22.3432 44.8817 22.2359 44.7906C20.1678 46.1606 18.1764 47.2981 16.3175 48.1807C13.5941 49.4737 11.2946 50.1525 9.53772 50.2985C7.76767 50.4455 6.92657 50.036 6.53462 49.6479C6.14267 49.2597 5.72482 48.4227 5.85442 46.6513C5.98307 44.8931 6.63942 42.587 7.90562 39.8511C8.77997 37.9618 9.91387 35.9345 11.2846 33.8268C11.1903 33.7155 11.0963 33.6041 11.0029 33.4927C9.82877 32.0931 8.72552 30.6907 7.69952 29.2969Z" fill="#778BA5"/>
    <path d="M37.4076 53.1177C34.8405 51.9092 32.1111 50.3072 29.3186 48.3654C30.7075 47.3339 32.1048 46.2246 33.4991 45.0441C33.6061 44.9535 33.7131 44.8625 33.8201 44.771C35.8929 46.1341 37.8881 47.2649 39.7499 48.1413C42.4776 49.4252 44.7793 50.0967 46.5367 50.2367C48.3072 50.3777 49.147 49.9652 49.5376 49.5758C49.9283 49.1864 50.3435 48.3479 50.208 46.577C50.0735 44.8192 49.4092 42.5154 48.1339 39.7836C47.4757 38.3739 46.6724 36.8875 45.7334 35.3486C46.2469 34.3385 46.6997 33.4369 46.8795 33.0471C47.3548 32.0167 47.8411 30.8973 48.2115 29.8894C48.2747 29.7176 48.3375 29.5415 48.3979 29.3633C50.3275 32.1583 51.9185 34.8892 53.1175 37.457C54.5495 40.5242 55.4885 43.4995 55.692 46.1573C55.894 48.8019 55.3825 51.5157 53.4205 53.4712C51.459 55.4267 48.7437 55.9297 46.0997 55.7192C43.4426 55.5072 40.4703 54.5592 37.4076 53.1177Z" fill="#778BA5"/>
    <path d="M33.7644 11.1506C35.8326 9.78059 37.8239 8.64314 39.6828 7.76054C42.4062 6.46749 44.7057 5.78854 46.4626 5.64264C48.2326 5.49559 49.0737 5.90524 49.4657 6.29334C49.8576 6.68149 50.2753 7.51854 50.1458 9.28994C50.0173 11.0481 49.3609 13.3542 48.0947 16.0901C47.2416 17.9333 46.1416 19.908 44.8155 21.9604C46.7896 22.4099 48.3399 23.9737 48.7696 25.9553C50.5213 23.3473 51.9743 20.802 53.0858 18.4002C54.5078 15.3282 55.4368 12.3498 55.6313 9.69134C55.8248 7.04604 55.3038 4.33415 53.3358 2.38521C51.3673 0.436266 48.6506 -0.0580389 46.0073 0.161508C43.3509 0.382148 40.3818 1.34026 37.3239 2.79211C34.7608 4.00901 32.0369 5.62009 29.2509 7.57119C30.6432 8.59809 32.0441 9.70269 33.4424 10.8785C33.5498 10.9688 33.6571 11.0595 33.7644 11.1506Z" fill="#29A5FF"/>
    <path fill-rule="evenodd" clip-rule="evenodd" d="M43.6466 36.2166C43.6466 36.2166 47.3883 29.1374 47.3883 27.0709C47.3883 25.0044 45.7131 23.3291 43.6466 23.3291C41.5801 23.3291 39.9049 25.0044 39.9049 27.0709C39.9049 29.1374 43.6466 36.2166 43.6466 36.2166ZM43.6466 28.6833C44.6422 28.6833 45.4494 27.8762 45.4494 26.8805C45.4494 25.8849 44.6422 25.0778 43.6466 25.0778C42.651 25.0778 41.8439 25.8849 41.8439 26.8805C41.8439 27.8762 42.651 28.6833 43.6466 28.6833Z" fill="#FF5151"/>
  </g>
  <defs>
    <clipPath id="clip0_2513_41">
      <rect width="56" height="56" fill="white"/>
    </clipPath>
  </defs>
</svg> 